<?xml version="1.0" encoding="utf-8"?>
<!-- Generator: Adobe Illustrator 22.0.1, SVG Export Plug-In . SVG Version: 6.00 Build 0)  -->
<svg version="1.1" id="Layer_1" xmlns="http://www.w3.org/2000/svg" xmlns:xlink="http://www.w3.org/1999/xlink" x="0px" y="0px"
	 viewBox="0 0 5916.8 2227.9" style="enable-background:new 0 0 5916.8 2227.9;" xml:space="preserve">
<style type="text/css">
	.st0{fill:#628E9D;}
	.st1{fill:#7BC3CA;}
	.st2{fill:#FFFFFF;}
	.st3{fill:#4E7A89;}
	.st4{fill:#3A6675;}
	.st5{fill:#FEF2A7;}
	.st6{enable-background:new    ;}
	.st7{fill:#8E6134;}
	.st8{fill:#C25D42;}
	.st9{fill:#CDE0DE;}
	.st10{fill:#265261;}
	.st11{fill:#384261;}
	.st12{fill:#914732;}
	.st13{fill:#32150B;}
	.st14{fill:none;stroke:#32150B;stroke-width:15.84;stroke-miterlimit:10;}
	.st15{fill:#5E796C;}
	.st16{fill:#4A6558;}
	.st17{fill:#1A3F45;}
	.st18{fill:#22746B;}
	.st19{fill:#BFCED5;}
	.st20{fill:#BD3435;}
	.st21{fill:#6A7493;}
	.st22{fill:#01626D;}
	.st23{fill:#9ECAD9;}
</style>
<rect x="477.7" y="60" class="st0" width="1432.8" height="1166.4"/>
<rect x="60" y="1013.7" class="st0" width="1432.8" height="1166.4"/>
<rect x="1210.2" y="480.9" class="st0" width="1432.8" height="1166.4"/>
<rect x="2802.9" y="110.9" class="st0" width="1432.8" height="1166.4"/>
<rect x="2266" y="1061.5" class="st0" width="1432.8" height="1166.4"/>
<rect x="4484" y="220.7" class="st0" width="1432.8" height="1166.4"/>
<rect x="3849.2" y="911.4" class="st0" width="1432.8" height="1166.4"/>
<rect x="3849.2" y="911.4" class="st0" width="1432.8" height="1166.4"/>
<rect x="3849.2" y="911.4" class="st0" width="1432.8" height="89.7"/>
<rect x="5192.4" y="911.4" class="st0" width="89.6" height="89.7"/>
<circle class="st0" cx="3913.5" cy="957.8" r="29.5"/>
<circle class="st0" cx="4000" cy="957.8" r="29.5"/>
<rect x="417.6" class="st1" width="1432.8" height="1166.4"/>
<rect x="417.6" class="st2" width="1432.8" height="1166.4"/>
<rect x="417.6" class="st3" width="1432.8" height="89.7"/>
<rect x="1760.8" class="st4" width="89.6" height="89.7"/>
<circle class="st2" cx="481.9" cy="46.5" r="29.5"/>
<circle class="st2" cx="568.4" cy="46.5" r="29.5"/>
<rect x="1150.1" y="420.9" class="st1" width="1432.8" height="1166.4"/>
<rect y="953.6" class="st1" width="1432.8" height="1166.4"/>
<rect y="953.6" class="st5" width="1432.8" height="1166.4"/>
<rect x="576.5" y="1428.8" class="st2" width="752.1" height="96.8"/>
<rect x="576.5" y="1572.9" class="st2" width="752.1" height="96.8"/>
<g class="st6">
	<path class="st7" d="M138,1513.2h-30.6v-7.7h-7.7V1452H115v45.9h15.3V1452h15.3v53.5H138V1513.2z"/>
	<path class="st7" d="M191.5,1513.2h-38.2v-15.3h30.6v-7.7h-22.9v-7.6h-7.7v-23h7.7v-7.7h38.2v15.3h-30.6v7.7h23v7.7h7.7v22.9h-7.7
		V1513.2z"/>
	<path class="st7" d="M252.7,1513.2h-38.2v-7.7h-7.6v-45.9h7.6v-7.7h30.6v7.7h7.6v23h-7.6v7.6h-23v7.7h30.6V1513.2z M222.1,1467.3
		v7.7h15.3v-7.7H222.1z"/>
	<path class="st7" d="M275.7,1513.2h-15.3v-53.5h7.6v-7.7h23v15.3h-15.3V1513.2z"/>
	<path class="st7" d="M313.9,1513.2h-15.3V1452h38.2v7.7h7.6v53.5h-15.3v-45.9h-15.3V1513.2z"/>
	<path class="st7" d="M398.1,1459.7v53.5h-38.2v-7.7h-7.7v-22.9h7.7v-7.7h-7.7v-15.3h7.7v-7.7h30.6v7.7H398.1z M359.8,1467.3v7.7
		h22.9v-7.7H359.8z M367.5,1490.3v7.7h15.3v-7.7H367.5z"/>
	<path class="st7" d="M421,1513.2h-15.3V1452h53.5v7.7h7.7v53.5h-15.3v-45.9H444v45.9h-15.3v-45.9H421V1513.2z"/>
	<path class="st7" d="M520.5,1513.2h-38.2v-7.7h-7.6v-45.9h7.6v-7.7h30.6v7.7h7.6v23h-7.6v7.6h-23v7.7h30.6V1513.2z M489.9,1467.3
		v7.7h15.3v-7.7H489.9z"/>
</g>
<g class="st6">
	<path class="st7" d="M118.9,1688h-15.3v-84.1h7.7v-7.7h30.6v7.7h7.7v45.9h-7.7v7.7h-23V1688z M118.9,1611.5v30.6h15.3v-30.6H118.9z
		"/>
	<path class="st7" d="M203,1603.8v53.5h-38.2v-7.7h-7.7v-22.9h7.7v-7.7h-7.7v-15.3h7.7v-7.7h30.6v7.7H203z M164.8,1611.5v7.7h22.9
		v-7.7H164.8z M172.4,1634.4v7.7h15.3v-7.7H172.4z"/>
	<path class="st7" d="M248.9,1657.4h-38.2v-15.3h30.6v-7.7h-23v-7.6h-7.6v-23h7.6v-7.7h38.2v15.3H226v7.7h23v7.7h7.6v22.9h-7.6
		V1657.4z"/>
	<path class="st7" d="M302.5,1657.4h-38.2v-15.3h30.6v-7.7h-23v-7.6h-7.6v-23h7.6v-7.7h38.2v15.3h-30.6v7.7h23v7.7h7.6v22.9h-7.6
		V1657.4z"/>
	<path class="st7" d="M340.7,1657.4h-15.3v-7.7h-7.7v-53.5h15.3v38.2h7.7v-15.3h7.6v15.3h7.7v-38.2h15.3v53.5h-7.6v7.7h-15.3v-7.7
		h-7.6V1657.4z"/>
	<path class="st7" d="M417.2,1657.4h-30.6v-7.7H379v-45.9h7.6v-7.7h30.6v7.7h7.6v45.9h-7.6V1657.4z M394.3,1611.5v30.6h15.3v-30.6
		H394.3z"/>
	<path class="st7" d="M447.8,1657.4h-15.3v-53.5h7.7v-7.7h22.9v15.3h-15.3V1657.4z"/>
	<path class="st7" d="M509,1657.4h-30.6v-7.7h-7.7v-45.9h7.7v-7.7h22.9v-15.3h15.3v68.8H509V1657.4z M486.1,1611.5v30.6h15.3v-30.6
		H486.1z"/>
</g>
<rect y="953.6" class="st8" width="1432.8" height="89.7"/>
<circle class="st5" cx="64.3" cy="1000.1" r="29.5"/>
<circle class="st5" cx="150.8" cy="1000.1" r="29.5"/>
<g>
	<g>
		<rect x="164" y="1767.4" class="st7" width="414.3" height="26.4"/>
	</g>
	<g>
		<rect x="164" y="1833.5" class="st7" width="474.4" height="26.4"/>
	</g>
	<g>
		<rect x="164" y="1899.5" class="st7" width="354.3" height="26.4"/>
	</g>
	<g>
		<rect x="164" y="1965.6" class="st7" width="444.3" height="26.4"/>
	</g>
</g>
<g>
	<g>
		<rect x="794.5" y="1767.4" class="st7" width="474.4" height="26.4"/>
	</g>
	<g>
		<rect x="794.5" y="1833.5" class="st7" width="474.4" height="26.4"/>
	</g>
	<g>
		<rect x="794.5" y="1899.5" class="st7" width="384.3" height="26.4"/>
	</g>
	<g>
		<rect x="794.5" y="1965.6" class="st7" width="444.3" height="26.4"/>
	</g>
</g>
<g class="st6">
	<path class="st7" d="M142.6,1239.2v81h-21.7v-134.4h23.6l21.3,75.5l21.3-75.5h22.1v134.4h-21.7v-81l-17.3,60.9h-10.6L142.6,1239.2z
		"/>
	<path class="st7" d="M229.4,1185.8h24v134.4h-24V1185.8z"/>
	<path class="st7" d="M294.1,1237.4v82.8h-20.5v-134.4h22.1l25.5,78v-78h20.5v134.4h-20.5L294.1,1237.4z"/>
	<path class="st7" d="M361.9,1185.8h24v134.4h-24V1185.8z"/>
	<path class="st7" d="M423.9,1288.7c0,7.7,4,12.3,10.2,12.3c6,0,10-4.6,10-11.5c0-9-3.6-16.1-19.6-31.5
		c-14.8-14-22.1-26.9-22.1-41.7c0-19.8,14.8-32.4,32.8-32.4c17.7,0,31.5,11.9,31.5,31.3v9h-22.7v-7.9c0-7.1-3.6-11.1-9-11.1
		c-5.6,0-9.2,3.8-9.2,10.4c0,7.7,3.8,14.2,18.8,28.6c15.2,14.6,23,27.8,23,44.5c0,20.4-15.4,33.4-34,33.4
		c-18.2,0-32.4-12.1-32.4-32.3v-10.9h22.7V1288.7z"/>
	<path class="st7" d="M518.8,1209v111.2H495V1209h-20.5v-23.2h64.9v23.2H518.8z"/>
	<path class="st7" d="M598.4,1320.2l-14.6-51.5h-9.6v51.5h-23.4v-134.4h30.9c21.7,0,35.3,11.3,35.3,34.9v14.6
		c0,12.3-4.8,21.1-12.5,25.7l18.2,59.1H598.4z M574.2,1249.1h7.3c7.7,0,11.9-4.6,11.9-13.4v-14.6c0-8.8-4.2-13.4-11.9-13.4h-7.3
		V1249.1z"/>
	<path class="st7" d="M645.1,1270.1l-24.2-84.3h25.2l11.5,53.6l11.7-53.6h23.6l-24.4,84.5v49.9h-23.4V1270.1z"/>
	<path class="st7" d="M762,1288.7c0,7.7,4,12.3,10.2,12.3c6,0,10-4.6,10-11.5c0-9-3.6-16.1-19.6-31.5c-14.8-14-22.1-26.9-22.1-41.7
		c0-19.8,14.8-32.4,32.8-32.4c17.7,0,31.5,11.9,31.5,31.3v9h-22.7v-7.9c0-7.1-3.6-11.1-9-11.1c-5.6,0-9.2,3.8-9.2,10.4
		c0,7.7,3.8,14.2,18.8,28.6c15.2,14.6,23,27.8,23,44.5c0,20.4-15.4,33.4-34,33.4c-18.2,0-32.4-12.1-32.4-32.3v-10.9H762V1288.7z"/>
	<path class="st7" d="M820.2,1320.2v-134.4H873v23.2h-29.4v31.3h23.6v21.7h-23.6v34.9H874v23.2H820.2z"/>
	<path class="st7" d="M935,1320.2l-14.6-51.5h-9.6v51.5h-23.4v-134.4h30.9c21.7,0,35.3,11.3,35.3,34.9v14.6
		c0,12.3-4.8,21.1-12.5,25.7l18.2,59.1H935z M910.8,1249.1h7.3c7.7,0,11.9-4.6,11.9-13.4v-14.6c0-8.8-4.2-13.4-11.9-13.4h-7.3
		V1249.1z"/>
	<path class="st7" d="M959.4,1185.8h25.2l12.5,84.5l12.7-84.5h23.6l-25.5,134.4h-22.8L959.4,1185.8z"/>
	<path class="st7" d="M1043.9,1185.8h24v134.4h-24V1185.8z"/>
	<path class="st7" d="M1127.8,1269.3h22.8v20.7c0,19.6-14.6,32.1-32.3,32.1c-18,0-32.3-12.1-32.3-32.1v-73.3c0-20,14.8-32.8,33-32.8
		c17.7,0,31.5,11.9,31.5,31.3v19.6h-22.8v-18.4c0-6.5-3.5-10.6-9-10.6s-9.2,4-9.2,10.6v73.3c0,6.7,3.6,10.6,9.2,10.6s9-3.8,9-10.6
		V1269.3z"/>
	<path class="st7" d="M1167.9,1320.2v-134.4h52.8v23.2h-29.4v31.3h23.6v21.7h-23.6v34.9h30.3v23.2H1167.9z"/>
	<path class="st7" d="M1253,1288.7c0,7.7,4,12.3,10.2,12.3c6,0,10-4.6,10-11.5c0-9-3.6-16.1-19.6-31.5c-14.8-14-22.1-26.9-22.1-41.7
		c0-19.8,14.8-32.4,32.8-32.4c17.7,0,31.5,11.9,31.5,31.3v9h-22.7v-7.9c0-7.1-3.6-11.1-9-11.1c-5.6,0-9.2,3.8-9.2,10.4
		c0,7.7,3.8,14.2,18.8,28.6c15.2,14.6,23,27.8,23,44.5c0,20.4-15.4,33.4-34,33.4c-18.2,0-32.4-12.1-32.4-32.3v-10.9h22.7V1288.7z"/>
</g>
<rect x="1150.1" y="420.9" class="st9" width="1432.8" height="1166.4"/>
<rect x="1150.1" y="420.9" class="st3" width="1432.8" height="89.7"/>
<rect x="2493.4" y="420.9" class="st4" width="89.6" height="89.7"/>
<circle class="st2" cx="1214.4" cy="467.3" r="29.5"/>
<circle class="st2" cx="1300.9" cy="467.3" r="29.5"/>
<circle class="st2" cx="5469.8" cy="968.7" r="29.5"/>
<circle class="st2" cx="5556.3" cy="968.7" r="29.5"/>
<rect x="1730.8" y="1132.6" class="st2" width="752.1" height="96.8"/>
<rect x="1730.8" y="1276.7" class="st2" width="752.1" height="96.8"/>
<g class="st6">
	<path class="st10" d="M1292.3,1217.1h-30.6v-7.7h-7.7v-53.5h15.3v45.9h15.3v-45.9h15.3v53.5h-7.7V1217.1z"/>
	<path class="st10" d="M1345.8,1217.1h-38.2v-15.3h30.6v-7.7h-22.9v-7.6h-7.7v-23h7.7v-7.7h38.2v15.3h-30.6v7.7h23v7.7h7.7v22.9
		h-7.7V1217.1z"/>
	<path class="st10" d="M1407,1217.1h-38.2v-7.7h-7.6v-45.9h7.6v-7.7h30.6v7.7h7.6v23h-7.6v7.6h-23v7.7h30.6V1217.1z M1376.4,1171.2
		v7.7h15.3v-7.7H1376.4z"/>
	<path class="st10" d="M1430,1217.1h-15.3v-53.5h7.6v-7.7h23v15.3H1430V1217.1z"/>
	<path class="st10" d="M1468.2,1217.1h-15.3v-61.2h38.2v7.7h7.6v53.5h-15.3v-45.9h-15.3V1217.1z"/>
	<path class="st10" d="M1552.4,1163.5v53.5h-38.2v-7.7h-7.7v-22.9h7.7v-7.7h-7.7v-15.3h7.7v-7.7h30.6v7.7H1552.4z M1514.1,1171.2
		v7.7h22.9v-7.7H1514.1z M1521.8,1194.1v7.7h15.3v-7.7H1521.8z"/>
	<path class="st10" d="M1575.3,1217.1H1560v-61.2h53.5v7.7h7.7v53.5h-15.3v-45.9h-7.7v45.9H1583v-45.9h-7.7V1217.1z"/>
	<path class="st10" d="M1674.8,1217.1h-38.2v-7.7h-7.6v-45.9h7.6v-7.7h30.6v7.7h7.6v23h-7.6v7.6h-23v7.7h30.6V1217.1z
		 M1644.2,1171.2v7.7h15.3v-7.7H1644.2z"/>
</g>
<g class="st6">
	<path class="st0" d="M1754,1051.5h-56.2V939h22.5v90h33.8V1051.5z"/>
	<path class="st0" d="M1821.5,1051.5h-45v-11.2h-11.2v-90h11.2V939h45v11.2h11.2v90h-11.2V1051.5z M1787.8,961.5v67.5h22.5v-67.5
		H1787.8z"/>
	<path class="st0" d="M1900.3,1040.2v11.2h-45v-11.2H1844v-90h11.2V939h45v11.2h11.2v22.5H1889v-11.2h-22.5v67.5h22.5v-11.2h-11.2
		v-22.5h33.8v45H1900.3z"/>
	<path class="st0" d="M1945.3,1051.5h-22.5V939h22.5V1051.5z"/>
	<path class="st0" d="M1979,1051.5h-22.5V939h22.5v22.5h11.2v11.2h11.2V984h11.2v-45h22.5v112.5h-22.5v-33.8h-11.2v-11.2h-11.2
		v-11.2H1979V1051.5z"/>
</g>
<g class="st6">
	<path class="st10" d="M1273.1,1391.8h-15.3v-84.1h7.7v-7.7h30.6v7.7h7.7v45.9h-7.7v7.7h-23V1391.8z M1273.1,1315.3v30.6h15.3v-30.6
		H1273.1z"/>
	<path class="st10" d="M1357.3,1307.6v53.5H1319v-7.7h-7.7v-22.9h7.7v-7.7h-7.7v-15.3h7.7v-7.7h30.6v7.7H1357.3z M1319,1315.3v7.7
		h22.9v-7.7H1319z M1326.7,1338.2v7.7h15.3v-7.7H1326.7z"/>
	<path class="st10" d="M1403.2,1361.2h-38.2v-15.3h30.6v-7.7h-23v-7.6h-7.6v-23h7.6v-7.7h38.2v15.3h-30.6v7.7h23v7.7h7.6v22.9h-7.6
		V1361.2z"/>
	<path class="st10" d="M1456.7,1361.2h-38.2v-15.3h30.6v-7.7h-23v-7.6h-7.6v-23h7.6v-7.7h38.2v15.3h-30.6v7.7h23v7.7h7.6v22.9h-7.6
		V1361.2z"/>
	<path class="st10" d="M1495,1361.2h-15.3v-7.7h-7.7V1300h15.3v38.2h7.7v-15.3h7.6v15.3h7.7V1300h15.3v53.5h-7.6v7.7h-15.3v-7.7
		h-7.6V1361.2z"/>
	<path class="st10" d="M1571.5,1361.2h-30.6v-7.7h-7.6v-45.9h7.6v-7.7h30.6v7.7h7.6v45.9h-7.6V1361.2z M1548.5,1315.3v30.6h15.3
		v-30.6H1548.5z"/>
	<path class="st10" d="M1602.1,1361.2h-15.3v-53.5h7.7v-7.7h22.9v15.3h-15.3V1361.2z"/>
	<path class="st10" d="M1663.3,1361.2h-30.6v-7.7h-7.7v-45.9h7.7v-7.7h22.9v-15.3h15.3v68.8h-7.6V1361.2z M1640.3,1315.3v30.6h15.3
		v-30.6H1640.3z"/>
</g>
<g>
	<path class="st11" d="M1443,731.5c0-0.8,0.1-1.6,0.1-2.4c0-6.7-1.3-12.9-3.5-17.9c-7.2-1.7-15-3.2-23.4-4.3v-54.1
		c-4-1.8-8.9-2.8-14.3-2.8s-10.3,1.1-14.3,2.8v51.7c-4.4-0.2-8.8-0.3-13.3-0.3c-3.9,0-7.7,0.1-11.5,0.2v-51.6
		c-4-1.8-8.9-2.8-14.3-2.8s-10.3,1.1-14.3,2.8v53.9c-9.1,1.2-17.7,2.7-25.4,4.6c-2.2,5-3.5,11.2-3.5,17.9s1.3,12.9,3.5,17.9
		c3.2,0.8,6.6,1.5,10.1,2.2v32.1l16.9,23.9c7.1,1.7,15.3,3,24.2,3.7v52.7c4,1.8,8.9,2.8,14.3,2.8s10.3-1.1,14.3-2.8v-25.4
		c11.5,12.8,28.2,20.9,46.7,20.9c34.7,0,63-28.3,63-63C1498.5,761.8,1474.2,735.2,1443,731.5z M1435.5,837.2
		c-23.8,0-43.2-19.4-43.2-43.2s19.4-43.2,43.2-43.2c23.8,0,43.2,19.4,43.2,43.2C1478.6,817.8,1459.3,837.2,1435.5,837.2z"/>
	<polygon class="st11" points="1457.7,766.7 1430.6,766.7 1411.2,803.1 1428.5,803.1 1419.7,825 1425.8,825 1463.3,788.2 
		1440.9,788.2 	"/>
	<path class="st11" d="M1598.6,678.2v-10.3h-50.9v18.9h57.8l8.9,8.8v29.2l-8.8,8.9h-64.7l-8.9-8.8v-15h15.8v10.4h50.9v-20.2h-57.8
		l-8.9-8.8v-27.9l8.8-8.9h64.7l8.9,8.8v14.9L1598.6,678.2L1598.6,678.2z"/>
	<path class="st11" d="M1731.8,720.8v13h-41.5v-12.7h12.7l-5.7-11.9h-39.1l-5.7,11.9h12.8v12.7h-41v-13h11.8l27.6-53.8h-15.8v-12.5
		h38.2l34,66.3H1731.8z M1691.4,697.1l-13.7-28.4l-13.7,28.4H1691.4z"/>
	<path class="st11" d="M1821.4,682.5h-15v-14.6h-39.6v20.7h32.4v12.5h-32.4v19.3h15.5v13.4h-44.4v-13.4h13.1v-52.5h-13.1v-13.4h83.5
		V682.5z"/>
	<path class="st11" d="M1903.6,682.5v-14.6h-41.8v19.3h32v12.5h-32v20.7h41.8v-14.6h15v27.9h-85.7v-13.4h13.1v-52.5h-13.1v-13.4
		h85.7v27.9h-15V682.5z"/>
	<path class="st11" d="M2027.2,686.1h-14.6V668h-24.9v52.5h15.5v13.4h-46.8v-13.4h15.5V668h-24.8v18.1h-15v-31.5h95v31.5H2027.2z"/>
	<path class="st11" d="M2093.7,702.6v18.2h14.8v13h-44.8v-13h14.9v-18.1l-32.7-35.2h-11.3v-13h43.3v12.6h-12.6l21.4,24.9l21.4-24.9
		h-12.6v-12.6h42.2v13h-11.3L2093.7,702.6z"/>
	<path class="st11" d="M1633.1,839.8v13h-41.5v-12.7h12.7l-5.7-11.9h-39.1l-5.7,11.9h12.8v12.7h-41v-13h11.8L1565,786h-15.8v-12.5
		h38.2l34,66.3H1633.1z M1592.7,816l-13.7-28.4l-13.7,28.4H1592.7z"/>
	<path class="st11" d="M1735.6,786.8H1723v57l-8.8,8.9h-60.7l-8.9-8.8v-57.1H1632v-13.4h42.7v13.4h-14.3v52.5h46.8v-52.5h-14.3
		v-13.4h42.7L1735.6,786.8L1735.6,786.8z"/>
	<path class="st11" d="M1840.1,805h-14.6v-18.1h-24.9v52.5h15.5v13.4h-46.8v-13.4h15.5v-52.5H1760V805h-15v-31.5h95L1840.1,805
		L1840.1,805z"/>
	<path class="st11" d="M1943.4,786.8v52.5h13.2v13.4h-42.1v-13.4h13.2v-20.2H1879v20.2h13.2v13.4h-42v-13.4h13.1v-52.5h-13.1v-13.4
		h42v13.4H1879v18.9h48.7v-18.9h-13.2v-13.4h42.1v13.4H1943.4z"/>
	<path class="st11" d="M2051.5,782.3v61.5l-8.8,8.9H1978l-8.9-8.8v-61.5l8.8-8.9h64.7L2051.5,782.3z M1984.8,786.8v52.5h50.9v-52.5
		H1984.8z"/>
	<path class="st11" d="M2162.6,839.8v13h-22.8l-35.6-34.3h-11.5v21.3h15.2v13h-43.8v-13h13.5v-53.3h-13.5v-13h84.8l8.9,8.8v27.3
		l-8.8,8.9h-24.9l22.4,21.3H2162.6z M2092.7,806.6h50v-20.1h-50V806.6z"/>
	<path class="st11" d="M2199,786.8v52.5h13.2v13.4h-42v-13.4h13.1v-52.5h-13.1v-13.4h42v13.4H2199z"/>
	<path class="st11" d="M2317.1,805h-14.6v-18.1h-24.9v52.5h15.5v13.4h-46.8v-13.4h15.5v-52.5H2237V805h-15v-31.5h95V805H2317.1z"/>
	<path class="st11" d="M2383.6,821.5v18.2h14.8v13h-44.8v-13h14.9v-18.1l-32.7-35.2h-11.3v-13h43.3V786h-12.6l21.4,24.9L2398,786
		h-12.6v-12.6h42.2v13h-11.3L2383.6,821.5z"/>
</g>
<rect x="2742.9" y="50.9" class="st1" width="1432.8" height="1166.4"/>
<rect x="2742.9" y="50.9" class="st5" width="1432.8" height="1166.4"/>
<rect x="2742.9" y="50.9" class="st8" width="1432.8" height="89.7"/>
<rect x="4086.1" y="50.9" class="st12" width="89.6" height="89.7"/>
<circle class="st5" cx="2807.2" cy="97.3" r="29.5"/>
<circle class="st5" cx="2893.7" cy="97.3" r="29.5"/>
<g class="st6">
	<path d="M3123.3,314.3h-17.6v-22H3091v78.9h13.1v18.1h-46.2v-18.1h13.1v-78.9h-14.7v22h-17.9v-40.2h84.8V314.3z"/>
	<path d="M3215.6,371.1v18.1h-23.8L3164,338h-2.6v33.1h12.7v18.1h-43.8v-18.1h11.1v-78.9h-11.1v-18.1h68.3l10.9,10.9v42l-10.9,10.9
		h-12.4l18.1,33.1H3215.6z M3161.4,321.6h28.1v-29.4h-28.1V321.6z"/>
	<path d="M3310.5,371.1v18.1h-39.7v-17.7h8.9l-3.6-18h-23.8l-3.6,18h9.1v17.7h-39.3v-18.1h9.9l19.2-79.5h-13v-17.6h42.8l23,97.1
		H3310.5z M3272.6,336.6l-8.5-41.6l-8.4,41.6H3272.6z"/>
	<path d="M3393.7,285v93.3l-10.9,10.9h-68v-18.1h11.1v-78.9h-11.1v-18.1h68L3393.7,285z M3373.7,292.2h-27.8v78.9h27.8V292.2z"/>
	<path d="M3459.1,309.2v-17h-24.5v29.7h27.9v18h-27.9v31.2h24.5v-17h17.9v35.1h-73.4v-18.1h11.1v-78.9h-11.1v-18.1h73.4v35.1H3459.1
		z"/>
	<path d="M3540.7,308.4v-16.1h-30.8v29.4h39.9l10.9,10.9v45.8l-10.9,10.9h-49l-10.9-10.9V355h20v16.1h30.8v-31.4h-39.9l-10.9-10.9
		V285l10.9-10.9h49l10.9,10.9v23.3H3540.7z"/>
	<path d="M3696,371.1v18.1h-39.7v-17.7h8.9l-3.6-18h-23.8l-3.6,18h9.1v17.7h-39.3v-18.1h9.9l19.2-79.5h-13v-17.6h42.8l23,97.1H3696z
		 M3658.1,336.6l-8.5-41.6l-8.4,41.6H3658.1z"/>
	<path d="M3792.6,292.2h-11.1v97.1h-19.7l-32-75.5v57.3h11.4v18.1h-40.9v-18.1h11.1v-78.9h-11.1v-18.1h31l31.8,74.9v-56.7H3752
		v-18.1h40.6V292.2z"/>
	<path d="M3877.3,285v93.3l-10.9,10.9h-68v-18.1h11.1v-78.9h-11.1v-18.1h68L3877.3,285z M3857.2,292.2h-27.8v78.9h27.8V292.2z"/>
</g>
<g class="st6">
	<path d="M2972.6,582.7l-20.6-20.6h-33.6l-10.9-10.9v-93.3l10.9-10.9h49l10.9,10.9v93.3l-5.8,5.8l12.8,13L2972.6,582.7z
		 M2927.6,543.9h30.8V465h-30.8V543.9z"/>
	<path d="M3076.6,465h-10.2v86.1l-10.9,10.9h-46.4l-10.9-10.9V465h-10.2v-18.1h39.5V465h-9.2v78.9h28.2V465h-9.2v-18.1h39.5V465z"/>
	<path d="M3168.2,543.9v18.1h-39.7v-17.7h8.9l-3.6-18H3110l-3.6,18h9.1v17.7h-39.3v-18.1h9.9l19.2-79.5h-13v-17.6h42.8l23,97.1
		H3168.2z M3130.3,509.4l-8.5-41.6l-8.4,41.6H3130.3z"/>
	<path d="M3245.1,520v42h-72.6v-18.1h11.1V465h-11.1v-18.1h44.2V465h-13.1v78.9h24V520H3245.1z"/>
	<path d="M3284,465v78.9h10.9v18.1h-42v-18.1h11.1V465h-11.1v-18.1h42V465H3284z"/>
	<path d="M3355,482v-17h-22.9v32.3h27.9v18.1h-27.9v28.5h13.8v18.1H3301v-18.1h11.1V465H3301v-18.1h71.9V482H3355z"/>
	<path d="M3412.7,465v78.9h10.9v18.1h-42v-18.1h11.1V465h-11.1v-18.1h42V465H3412.7z"/>
	<path d="M3504.3,551.1l-10.9,10.9h-49l-10.9-10.9v-93.3l10.9-10.9h49l10.9,10.9v27.4h-20V465h-30.8v78.9h30.8v-20.2h20V551.1z"/>
	<path d="M3604.4,543.9v18.1h-39.7v-17.7h8.9l-3.6-18h-23.8l-3.6,18h9.1v17.7h-39.3v-18.1h9.9l19.2-79.5h-13v-17.6h42.8l23,97.1
		H3604.4z M3566.5,509.4l-8.5-41.6l-8.4,41.6H3566.5z"/>
	<path d="M3682.6,487.1H3665v-22h-14.7v78.9h13.1v18.1h-46.2v-18.1h13.1V465h-14.7v22h-17.9v-40.2h84.8V487.1z"/>
	<path d="M3720.7,465v78.9h10.9v18.1h-42v-18.1h11.1V465h-11.1v-18.1h42V465H3720.7z"/>
	<path d="M3812.3,457.8v93.3l-10.9,10.9h-49l-10.9-10.9v-93.3l10.9-10.9h49L3812.3,457.8z M3761.5,465v78.9h30.8V465H3761.5z"/>
	<path d="M3914.4,465h-11.1v97.1h-19.7l-32-75.5v57.3h11.4v18.1h-40.9v-18.1h11.1V465h-11.1v-18.1h31l31.8,74.9V465h-11.1v-18.1
		h40.6V465z"/>
	<path d="M3974.4,481.2V465h-30.8v29.4h39.9l10.9,10.9v45.8l-10.9,10.9h-49l-10.9-10.9v-23.3h20v16.1h30.8v-31.4h-39.9l-10.9-10.9
		v-43.8l10.9-10.9h49l10.9,10.9v23.3H3974.4z"/>
</g>
<g>
	<g>
		<path class="st13" d="M3625.6,756.6v52.9l-62.6,4.2v-30l21.5-1.5v14.5l19.7-1.3v-23.9l-41.2,2.8v-52.9l62.6-4.4v30.1l-21.4,1.5
			v-14.5l-19.7,1.3v23.9L3625.6,756.6z"/>
		<path class="st13" d="M3663.5,811l-21.4,1.6v-92.4l21.5-1.6L3663.5,811z"/>
		<path class="st13" d="M3711.2,759.4l31.3-2.2v52.4l-62.6,4.2v-92.3l62.6-4.4v30.1l-21.4,1.5v-14.5l-19.8,1.2v61.5l19.8-1.5v-21.3
			l-9.9,0.7L3711.2,759.4L3711.2,759.4z"/>
		<path class="st13" d="M3821.6,717.1v93.7l-21.4,1.5v-74.2l-19.8,1.3V811l-21.4,1.5v-91L3821.6,717.1z"/>
		<path class="st13" d="M3886,811l-21.4,1.6v-92.4l21.5-1.6L3886,811z"/>
		<path class="st13" d="M3965.1,717.1v93.7l-21.4,1.5v-74.2l-19.8,1.3V811l-21.4,1.5v-91L3965.1,717.1z"/>
	</g>
	<g>
		<path class="st13" d="M3016.1,760.2v52.9l-62.6,4.2v-30l21.5-1.5v14.5l19.7-1.3v-23.9l-41.2,2.8V725l62.6-4.4v30.1l-21.4,1.5
			v-14.5L2975,739v24L3016.1,760.2z"/>
		<path class="st13" d="M3054,814.6l-21.4,1.6v-92.4l21.5-1.6L3054,814.6z"/>
		<path class="st13" d="M3101.8,763l31.3-2.2v52.4l-62.6,4.2v-92.3l62.6-4.4v30.1l-21.4,1.5v-14.5l-19.8,1.2v61.5l19.8-1.5v-21.3
			l-9.9,0.7L3101.8,763L3101.8,763z"/>
		<path class="st13" d="M3212.1,720.7v93.7l-21.4,1.5v-74.2l-19.8,1.3v71.5l-21.4,1.5v-91L3212.1,720.7z"/>
		<path class="st13" d="M3255.1,817.4v-93.6l21.5-1.6v74.3l19.8-1.3v-71.5l21.3-1.6v91.1L3255.1,817.4z"/>
		<path class="st13" d="M3355.6,814.6l-21.3,1.5v-91l62.6-4.4v64.7l-41.3,2.8V814.6z M3355.7,772.6l19.8-1.2l-0.1-33.7l-19.7,1.2
			V772.6z"/>
	</g>
	<line class="st14" x1="3480" y1="662.3" x2="3480" y2="867.7"/>
</g>
<rect x="2205.9" y="1001.5" class="st1" width="1432.8" height="1166.4"/>
<rect x="2205.9" y="1001.5" class="st2" width="1432.8" height="1166.4"/>
<rect x="2205.9" y="1001.5" class="st15" width="1432.8" height="89.7"/>
<rect x="3549.2" y="1001.5" class="st16" width="89.6" height="89.7"/>
<circle class="st2" cx="2270.3" cy="1047.9" r="29.5"/>
<circle class="st2" cx="2356.7" cy="1047.9" r="29.5"/>
<rect x="2786.6" y="1713.2" class="st9" width="752.1" height="96.8"/>
<rect x="2786.6" y="1857.3" class="st9" width="752.1" height="96.8"/>
<g class="st6">
	<path class="st17" d="M2359.8,1744.1v53.5h-38.2v-7.7h-7.7V1767h7.7v-7.7h-7.7v-15.3h7.7v-7.7h30.6v7.7H2359.8z M2321.5,1751.7v7.7
		h22.9v-7.7H2321.5z M2329.2,1774.7v7.7h15.3v-7.7H2329.2z"/>
	<path class="st17" d="M2405.7,1797.6h-30.6v-7.7h-7.7v-45.9h7.7v-7.7h30.6v7.7h7.7v15.3H2398v-7.7h-15.3v30.6h15.3v-7.7h15.3v15.3
		h-7.7V1797.6z"/>
	<path class="st17" d="M2459.2,1797.6h-30.6v-7.7h-7.6v-45.9h7.6v-7.7h30.6v7.7h7.6v15.3h-15.3v-7.7h-15.3v30.6h15.3v-7.7h15.3v15.3
		h-7.6V1797.6z"/>
	<path class="st17" d="M2512.8,1797.6h-30.6v-7.7h-7.6v-45.9h7.6v-7.7h30.6v7.7h7.6v45.9h-7.6V1797.6z M2489.8,1751.7v30.6h15.3
		v-30.6H2489.8z"/>
	<path class="st17" d="M2566.3,1797.6h-30.6v-7.7h-7.7v-53.5h15.3v45.9h15.3v-45.9h15.3v53.5h-7.7V1797.6z"/>
	<path class="st17" d="M2596.9,1797.6h-15.3v-61.2h38.2v7.7h7.7v53.5h-15.3v-45.9h-15.3V1797.6z"/>
	<path class="st17" d="M2673.4,1797.6h-23v-7.7h-7.6v-38.2h-7.7v-15.3h7.7v-15.3h15.3v15.3h15.3v15.3h-15.3v30.6h15.3V1797.6z"/>
</g>
<g class="st6">
	<path class="st18" d="M2764.8,1632.1h-56.2v-22.5h45v-22.5h-33.8v-11.2h-11.2v-45h11.2v-11.2h56.2v22.5h-45v22.5h33.8v11.2h11.2v45
		h-11.2V1632.1z"/>
	<path class="st18" d="M2809.8,1632.1h-22.5v-112.5h22.5V1632.1z"/>
	<path class="st18" d="M2877.3,1620.8v11.2h-45v-11.2h-11.2v-90h11.2v-11.2h45v11.2h11.2v22.5h-22.5v-11.2h-22.5v67.5h22.5v-11.2
		h-11.2v-22.5h33.8v45H2877.3z"/>
	<path class="st18" d="M2922.3,1632.1h-22.5v-112.5h22.5v22.5h11.2v11.2h11.2v11.2h11.2v-45h22.5v112.5h-22.5v-33.8h-11.2v-11.2
		h-11.2v-11.2h-11.2V1632.1z"/>
	<path class="st18" d="M3046.1,1632.1h-22.5v-112.5h22.5V1632.1z"/>
	<path class="st18" d="M3079.8,1632.1h-22.5v-112.5h22.5v22.5h11.2v11.2h11.2v11.2h11.2v-45h22.5v112.5h-22.5v-33.8h-11.2v-11.2
		h-11.2v-11.2h-11.2V1632.1z"/>
</g>
<g class="st6">
	<path class="st17" d="M2329.2,1972.3h-15.3v-84.1h7.7v-7.7h30.6v7.7h7.7v45.9h-7.7v7.7h-23V1972.3z M2329.2,1895.8v30.6h15.3v-30.6
		H2329.2z"/>
	<path class="st17" d="M2413.3,1888.2v53.5h-38.2v-7.7h-7.7v-22.9h7.7v-7.7h-7.7v-15.3h7.7v-7.7h30.6v7.7H2413.3z M2375.1,1895.8
		v7.7h22.9v-7.7H2375.1z M2382.7,1918.8v7.7h15.3v-7.7H2382.7z"/>
	<path class="st17" d="M2459.2,1941.7H2421v-15.3h30.6v-7.7h-23v-7.6h-7.6v-23h7.6v-7.7h38.2v15.3h-30.6v7.7h23v7.7h7.6v22.9h-7.6
		V1941.7z"/>
	<path class="st17" d="M2512.8,1941.7h-38.2v-15.3h30.6v-7.7h-23v-7.6h-7.6v-23h7.6v-7.7h38.2v15.3h-30.6v7.7h23v7.7h7.6v22.9h-7.6
		V1941.7z"/>
	<path class="st17" d="M2551,1941.7h-15.3v-7.7h-7.7v-53.5h15.3v38.2h7.7v-15.3h7.6v15.3h7.7v-38.2h15.3v53.5h-7.6v7.7h-15.3v-7.7
		h-7.6V1941.7z"/>
	<path class="st17" d="M2627.5,1941.7h-30.6v-7.7h-7.6v-45.9h7.6v-7.7h30.6v7.7h7.6v45.9h-7.6V1941.7z M2604.6,1895.8v30.6h15.3
		v-30.6H2604.6z"/>
	<path class="st17" d="M2658.1,1941.7h-15.3v-53.5h7.7v-7.7h22.9v15.3h-15.3V1941.7z"/>
	<path class="st17" d="M2719.3,1941.7h-30.6v-7.7h-7.7v-45.9h7.7v-7.7h22.9v-15.3h15.3v68.8h-7.6V1941.7z M2696.4,1895.8v30.6h15.3
		v-30.6H2696.4z"/>
</g>
<g>
	<path class="st18" d="M2381.2,1337.8c0-7.6,0.9-16.2,2.7-26.3c7.9-44.6,20.2-64.3,66.2-64.3c35.3,0,47.3,11.9,47.3,38
		c0,7.6-0.9,16.4-2.7,26.3c-8.1,44.6-20.3,64.1-66.2,64.1C2393.2,1375.6,2381.2,1363.9,2381.2,1337.8z M2414.1,1298.3
		c-2.9,11-5.8,27.9-5.8,36c0,14.8,7.2,19.1,25.4,19.1c18.5,0,26.3-7.7,31-28.8c2.5-11.5,5.8-27.5,5.8-36c0-14.8-7.2-19.3-25.6-19.3
		C2426.4,1269.4,2419.7,1277.3,2414.1,1298.3z"/>
	<path class="st18" d="M2530,1373.2h-23.2l16.7-95.4h20.5l-2.5,20.9c17.1-16,31-23.2,43.4-23.2c12.2,0,15.8,5.6,15.8,15.1
		c0,3.6-0.4,7.9-1.3,12.6l-12.4,70h-23.4l11-62.6c0.5-2.7,0.9-4.9,0.9-6.7c0-3.2-1.3-4.9-5-4.9c-7.2,0-16.9,6.3-30.8,18.4
		L2530,1373.2z"/>
	<path class="st18" d="M2652.1,1353.2l-1.6,19.8c-5.6,0.9-12.1,1.6-16.7,1.6c-26.8,0-22.5-16.2-19.3-35.6l17.8-100.8h23.8
		l-18.7,105.7c-1.1,6.3-2,10.1,6.8,10.1C2646.1,1354,2649.6,1353.4,2652.1,1353.2z"/>
	<path class="st18" d="M2660.7,1373.2l16.6-95.4h23.9l-16.7,95.4H2660.7z M2695.6,1238.7c8.1,0,12.4,3.2,12.4,10.1
		c0,11.2-6.3,16.2-16,16.2c-8.1,0-12.4-3.1-12.4-9.7c0-1.1,0.2-2.2,0.4-3.4C2681.6,1242.9,2686.3,1238.7,2695.6,1238.7z"/>
	<path class="st18" d="M2730.7,1373.2h-23.2l16.7-95.4h20.5l-2.5,20.9c17.1-16,31-23.2,43.4-23.2c12.2,0,15.8,5.6,15.8,15.1
		c0,3.6-0.4,7.9-1.3,12.6l-12.4,70h-23.4l11-62.6c0.5-2.7,0.9-4.9,0.9-6.7c0-3.2-1.3-4.9-5-4.9c-7.2,0-16.9,6.3-30.8,18.4
		L2730.7,1373.2z"/>
	<path class="st18" d="M2837.3,1336.9c-0.5,2.9-0.7,5.4-0.7,7.6c0,7,3.4,10.4,18,10.4c10.3,0,18.7-1.6,29-3.1l-1.4,19.6
		c-10.1,1.8-24.7,3.8-34.7,3.8c-24.5,0-34.7-6.7-34.7-28.8c0-5.9,0.7-13.1,2.2-21.6c6.5-37.3,21.2-49.1,52.7-49.1
		c16.7,0,35.5,4,31.7,25C2895.1,1323.5,2874.5,1334.9,2837.3,1336.9z M2839.1,1323.2c22.1-1.6,38-9,38-20.5c0-5-1.8-8.1-12.2-8.1
		C2848.4,1294.6,2842.7,1303.9,2839.1,1323.2z"/>
	<path class="st18" d="M2965.8,1373.2h-25.4l21.8-123.5h48.2c33.5,0,41.6,17.8,37.4,41.4c-4.3,24.8-17.8,41.9-52,41.9
		c-8.1,0-14.8-0.5-22.9-1.4L2965.8,1373.2z M2984,1270.1l-7.6,42.1c7.9,0.7,11.2,1.1,19.1,1.1c17.3,0,23.9-6.5,26.3-19.3l0.9-5
		c2.2-11.9-1.6-18.9-16-18.9L2984,1270.1L2984,1270.1z"/>
	<path class="st18" d="M3050.8,1345c0-5.6,0.7-12.1,2-19.4c5.9-34.9,16.6-50.2,51.5-50.2c27,0,37.3,9.9,37.3,31.7
		c0,5.4-0.5,11.7-1.8,18.5c-6.1,34.9-17.3,50-51.8,50C3060.8,1375.6,3050.8,1366.2,3050.8,1345z M3117,1310.8
		c0-9.5-4-14.2-15.7-14.2h-0.7c-12.8,0-18.4,5-21.8,18.5c-2.2,8.6-3.8,20-3.8,25.2c0,10.3,4.1,14.2,15.5,14.2h0.7
		c14.9,0,20.2-6.7,23.2-24.3C3115.7,1323.2,3117,1315.6,3117,1310.8z"/>
	<path class="st18" d="M3173.3,1373.2h-22.9c5.6-31.7,11-63.7,16.6-95.4h20.3c-1.4,8.1-2.5,16-4,24.3c14.9-19.4,22.3-25.9,34.2-25.9
		c2.7,0,5.6,0.4,9,0.9c-1.8,8.3-3.8,16.4-5.8,24.7c-2.3-0.2-4.3-0.2-6.1-0.2c-9.5,0-15.5,3.1-31.7,18.2
		C3179.8,1337.6,3176.6,1355.6,3173.3,1373.2z"/>
	<path class="st18" d="M3227.9,1298.3l3.6-20h10.4l7-20.2h20.2l-3.6,20.2h29.2l-3.6,20h-29.2l-7.2,41.4c-2.2,12.2-0.7,14.2,9.7,14.2
		c4.1,0,10.8-0.5,16.4-1.4l-1.3,19.8c-8.8,1.6-19.6,2.7-26.8,2.7c-21.6,0-26.6-8.3-21.8-35.3l7.4-41.4L3227.9,1298.3L3227.9,1298.3z
		"/>
	<path class="st18" d="M3352.3,1373.2c0.7-6.7,1.6-13.1,2.5-19.8c-14,14.2-24.3,22-38.9,22c-13.9,0-19.8-8.6-19.8-25.9
		c0-6.5,0.7-14,2.3-22.9c6.5-35.6,18-50.2,50.9-50.2c13.3,0,26.3,1.6,40,4.5c-5.4,30.8-11,61.6-16.4,92.3H3352.3z M3362.7,1298.7
		c-5.4-0.9-10.8-1.4-16-1.4c-16.9,0-20,8.3-23.2,25c-1.6,8.3-2.7,16-2.7,20.7c0,7,2.3,9.5,7.9,9.5c7.7,0,15.1-6.7,27.7-18
		C3358.6,1322.6,3360.7,1310.6,3362.7,1298.7z"/>
	<path class="st18" d="M3438.5,1353.2l-1.6,19.8c-5.6,0.9-12.1,1.6-16.7,1.6c-26.8,0-22.5-16.2-19.3-35.6l17.8-100.8h23.8
		l-18.7,105.7c-1.1,6.3-2,10.1,6.8,10.1C3432.5,1354,3436,1353.4,3438.5,1353.2z"/>
</g>
<rect x="4423.9" y="160.7" class="st1" width="1432.8" height="1166.4"/>
<rect x="4423.9" y="160.7" class="st2" width="1432.8" height="1166.4"/>
<rect x="4948.2" y="908.9" class="st19" width="752.1" height="96.8"/>
<rect x="4948.2" y="1053" class="st19" width="752.1" height="96.8"/>
<rect x="4423.9" y="160.7" class="st15" width="1432.8" height="89.7"/>
<rect x="5767.1" y="160.7" class="st16" width="89.6" height="89.7"/>
<circle class="st2" cx="4488.2" cy="207.1" r="29.5"/>
<circle class="st2" cx="4574.7" cy="207.1" r="29.5"/>
<g class="st6">
	<path class="st18" d="M4982.8,761.3h-56.2v-22.5h45v-22.5h-33.8V705h-11.2v-45h11.2v-11.2h56.2v22.5h-45v22.5h33.8V705h11.2v45
		h-11.2V761.3z"/>
	<path class="st18" d="M5027.8,761.3h-22.5V648.8h22.5V761.3z"/>
	<path class="st18" d="M5095.3,750v11.2h-45V750h-11.2v-90h11.2v-11.2h45V660h11.2v22.5h-22.5v-11.2h-22.5v67.5h22.5v-11.2h-11.2
		V705h33.8v45H5095.3z"/>
	<path class="st18" d="M5140.3,761.3h-22.5V648.8h22.5v22.5h11.2v11.2h11.2v11.2h11.2v-45h22.5v112.5h-22.5v-33.8h-11.2v-11.2h-11.2
		V705h-11.2V761.3z"/>
	<path class="st18" d="M5264.1,761.3h-22.5V648.8h22.5V761.3z"/>
	<path class="st18" d="M5297.8,761.3h-22.5V648.8h22.5v22.5h11.2v11.2h11.2v11.2h11.2v-45h22.5v112.5h-22.5v-33.8h-11.2v-11.2h-11.2
		V705h-11.2V761.3z"/>
</g>
<g>
	<rect x="3789.1" y="851.3" class="st1" width="1432.8" height="1166.4"/>
	<rect x="3789.1" y="851.3" class="st9" width="1432.8" height="1166.4"/>
	<rect x="3789.1" y="851.3" class="st3" width="1432.8" height="89.7"/>
	<rect x="5132.4" y="851.3" class="st4" width="89.6" height="89.7"/>
	<circle class="st2" cx="3853.4" cy="897.8" r="29.5"/>
	<circle class="st2" cx="3939.9" cy="897.8" r="29.5"/>
</g>
<g>
	<path class="st11" d="M4273,1139.8c0,18.3-22.4,29.4-61.1,29.4h-131.7v-16.7h18.1c6.5,0,9.3-1.5,9.3-9.5v-53c0-7.8-2.9-9.5-9.3-9.5
		h-18.1V1064h126.9c38.9,0,59.6,10.5,59.6,27.2c0,12-11.1,22.5-35.6,23.6C4260.4,1117.2,4273,1126.2,4273,1139.8z M4197.1,1107.9
		c17.6,0,24.3-4.4,24.3-13.7s-6.8-13.7-24.3-13.7h-47.4v27.3L4197.1,1107.9L4197.1,1107.9z M4201.5,1152.8
		c17.9,0,25.8-4.3,25.8-14.2s-8-14.4-25.8-14.4h-51.8v28.7L4201.5,1152.8L4201.5,1152.8z"/>
	<path class="st11" d="M4486.9,1169.3h-92.4v-16.7h15.8c6.3,0,8.2-4.1,4.5-9.2l-4.7-6.3h-77.7l-4.6,6.3c-3.8,5.1-1.8,9.2,4.5,9.2
		h16.4v16.7h-72.9v-16.7h4.5c10,0,14.5-1.9,20.7-9.9l39.9-52.8c3.9-4.9,2.2-9.2-4.4-9.2h-10.8v-16.5h78.5l57.6,78.5
		c5.7,7.8,10.5,9.9,20.6,9.9h4.6v16.7H4486.9z M4371.6,1084.2l-27,36.5h53.6L4371.6,1084.2z"/>
	<path class="st11" d="M4689.3,1080.7c-6.6,0-9.3,1.5-9.3,9.5v79.1h-45l-88.4-78.5v52.4c0,8,2.7,9.5,9.3,9.5h18.2v16.7h-79.8v-16.7
		h18.1c6.5,0,9.3-1.5,9.3-9.5v-53c0-7.8-2.9-9.5-9.3-9.5h-18.1v-16.5h81l79.8,70.8v-44.9c0-8-2.7-9.5-9.3-9.5h-18.2v-16.7h79.2v16.7
		L4689.3,1080.7L4689.3,1080.7z"/>
	<path class="st11" d="M4930.8,1169.3h-98.3v-16.7h11.4c6.1,0,6.6-4.1,2.4-7.7l-29.7-25.4l-29.7,13.4v10.2c0,8,2.7,9.5,9.3,9.5h16.5
		v16.7h-95.3v-16.7h18.1c6.5,0,9.3-1.5,9.3-9.5v-53c0-7.8-2.9-9.5-9.3-9.5h-18.1v-16.5h95.3v16.5h-16.5c-6.6,0-9.3,1.7-9.3,9.5v23.7
		l59.9-26.7c6.4-2.9,4.4-6.5,0.1-6.5h-13.5v-16.5h91.8v16.5h-8.4c-9,0-16.1,1.4-25.8,5.7l-38.6,17.2l46.4,39.9
		c8.1,6.9,15.9,9,27.3,9h4.6v16.9H4930.8z"/>
</g>
<g>
	<rect x="3927.8" y="1273.4" class="st2" width="1155.6" height="317.4"/>
	<rect x="4233.9" y="1448.3" class="st9" width="752.1" height="96.8"/>
	<polygon class="st20" points="4058.1,1590.8 3927.8,1590.8 3927.8,1273.4 4058.1,1273.4 4178.2,1432.1 	"/>
	<g class="st6">
		<path class="st21" d="M4283.7,1401.7h-13.9l-3.8-13.9H4248l-3.8,13.9H4231l20.1-65.5h12.5L4283.7,1401.7z M4250.4,1377.8h13.1
			l-6.6-23.6L4250.4,1377.8z"/>
		<path class="st21" d="M4316.4,1377.5h12.8v3.4c0,13.3-8.9,21.7-21.2,21.7c-12.6,0-21.4-8.1-21.4-21.4v-24.3
			c0-13.3,9.2-21.6,21.7-21.6c12.4,0,21,8,21,21.3v2.7h-12.8v-2.8c0-6-3.2-9.5-8.3-9.5c-5.1,0-8.2,3.6-8.2,9.5v24.8
			c0,6.1,3.2,9.5,8.2,9.5c5.1,0,8.3-3.5,8.3-9.5V1377.5z"/>
		<path class="st21" d="M4368.4,1377.5h12.8v3.4c0,13.3-8.9,21.7-21.2,21.7c-12.6,0-21.4-8.1-21.4-21.4v-24.3
			c0-13.3,9.2-21.6,21.7-21.6c12.4,0,21,8,21,21.3v2.7h-12.8v-2.8c0-6-3.2-9.5-8.3-9.5c-5.1,0-8.2,3.6-8.2,9.5v24.8
			c0,6.1,3.2,9.5,8.2,9.5c5.1,0,8.3-3.5,8.3-9.5V1377.5z"/>
		<path class="st21" d="M4391.6,1401.7v-65.5h35.6v11.7h-22.3v14.6h18.5v11h-18.5v16.6h22.7v11.7H4391.6z"/>
		<path class="st21" d="M4434.4,1352.6c0-10.4,8.6-17.4,19.3-17.4c16.4,0,19.9,14.2,19.9,14.2l-10.8,4.3c0,0-2.2-7.5-8.9-7.5
			c-3.6,0-6.4,2.2-6.4,5.7c0,4.5,3.5,7.3,10,11.2c8.3,5.1,15.3,11.3,15.3,20.8c0,11.8-8.9,18.6-20.2,18.6
			c-16.9,0-21.3-16.3-21.3-16.3l10.8-4.3c0,0,3.4,9.5,10.5,9.5c4.3,0,7.1-2.7,7.1-6.7c0-5-3.9-7.9-11-12.2
			C4440.5,1367.7,4434.4,1361.1,4434.4,1352.6z"/>
		<path class="st21" d="M4479.5,1352.6c0-10.4,8.6-17.4,19.3-17.4c16.4,0,19.9,14.2,19.9,14.2l-10.8,4.3c0,0-2.2-7.5-8.9-7.5
			c-3.6,0-6.4,2.2-6.4,5.7c0,4.5,3.5,7.3,10,11.2c8.3,5.1,15.3,11.3,15.3,20.8c0,11.8-8.9,18.6-20.2,18.6
			c-16.9,0-21.3-16.3-21.3-16.3l10.8-4.3c0,0,3.4,9.5,10.5,9.5c4.3,0,7.1-2.7,7.1-6.7c0-5-3.9-7.9-11-12.2
			C4485.6,1367.7,4479.5,1361.1,4479.5,1352.6z"/>
		<path class="st21" d="M4596.9,1401.7h-13.9l-3.8-13.9h-18.1l-3.8,13.9h-13.1l20.1-65.5h12.5L4596.9,1401.7z M4563.6,1377.8h13.1
			l-6.6-23.6L4563.6,1377.8z"/>
		<path class="st21" d="M4629.6,1377.5h12.8v3.4c0,13.3-8.9,21.7-21.2,21.7c-12.6,0-21.4-8.1-21.4-21.4v-24.3
			c0-13.3,9.2-21.6,21.7-21.6c12.4,0,21,8,21,21.3v2.7h-12.8v-2.8c0-6-3.2-9.5-8.3-9.5c-5.1,0-8.2,3.6-8.2,9.5v24.8
			c0,6.1,3.2,9.5,8.2,9.5c5.1,0,8.3-3.5,8.3-9.5V1377.5z"/>
		<path class="st21" d="M4681.6,1377.5h12.8v3.4c0,13.3-8.9,21.7-21.2,21.7c-12.6,0-21.4-8.1-21.4-21.4v-24.3
			c0-13.3,9.2-21.6,21.7-21.6c12.4,0,21,8,21,21.3v2.7h-12.8v-2.8c0-6-3.2-9.5-8.3-9.5c-5.1,0-8.2,3.6-8.2,9.5v24.8
			c0,6.1,3.2,9.5,8.2,9.5c5.1,0,8.3-3.5,8.3-9.5V1377.5z"/>
		<path class="st21" d="M4703.8,1357.3c0-13.6,9.4-22.1,22.2-22.1c12.9,0,21.8,8.2,21.8,21.8v23.4c0,13.6-9.3,22.2-22.1,22.2
			c-12.9,0-21.9-8.3-21.9-21.9V1357.3z M4717.1,1380.8c0,6.4,3.4,10,8.7,10c5.4,0,8.8-3.7,8.8-10v-23.9c0-6.3-3.4-10-8.8-10
			c-5.3,0-8.7,3.7-8.7,10V1380.8z"/>
		<path class="st21" d="M4787.6,1336.1h13.1v44.7c0,13.3-9.1,21.7-21.6,21.7c-12.6,0-21.4-8.1-21.4-21.4v-45h13.4v45.1
			c0,6.1,3.2,9.5,8.2,9.5c5.1,0,8.3-3.5,8.3-9.5V1336.1z"/>
		<path class="st21" d="M4823.6,1360v41.7h-12.2v-65.5h12.9l19,40v-40h12.1v65.5h-12.1L4823.6,1360z"/>
		<path class="st21" d="M4889.5,1348.1v53.5h-13.3v-53.5h-13.8v-12h40.7v12H4889.5z"/>
	</g>
</g>
<g>
	<g>
		<rect x="4148.3" y="1695" class="st11" width="654.5" height="26.4"/>
	</g>
	<g>
		<rect x="4148.3" y="1761.1" class="st11" width="714.6" height="26.4"/>
	</g>
	<g>
		<rect x="4148.3" y="1827.1" class="st11" width="594.5" height="26.4"/>
	</g>
	<g>
		<rect x="4148.3" y="1893.2" class="st11" width="474.4" height="26.4"/>
	</g>
</g>
<g>
	<path class="st17" d="M4910.3,373.7l-97.9,55.1l5.8,7.3l92.2-49.8l92.2,49.8l5.8-7.3L4910.3,373.7z M4834,458.9h4.2v5.7h4.1v58.7
		h-4.1v5.3h-4.2v7.8h156v-7.8h-5.2v-5.3h-3.9v-58.7h3.9v-5.7h5.2v-7.8h-156V458.9z M4950.5,464.5h3.9v-5.7h5.5v5.7h4.1v58.7h-4.1
		v5.3h-5.5v-5.3h-3.9V464.5z M4920,464.5h3.9v-5.7h5.5v5.7h4.1v58.7h-4.1v5.3h-5.5v-5.3h-3.9V464.5z M4889.6,464.5h3.9v-5.7h5.5v5.7
		h4.1v58.7h-4.1v5.3h-5.5v-5.3h-3.9V464.5z M4859.2,464.5h3.9v-5.7h5.5v5.7h4.1v58.7h-4.1v5.3h-5.5v-5.3h-3.9V464.5z M4910.3,393.9
		l-69,37.3v13h140.5v-11.6L4910.3,393.9z M4909.9,437.6c-9.3,0-16.9-7.5-16.9-16.9c0-9.3,7.6-16.9,16.9-16.9s16.9,7.5,16.9,16.9
		C4926.8,430,4919.2,437.6,4909.9,437.6z"/>
	<g>
		<path class="st17" d="M5145.8,505.2c3.3-1.2,4.6,0.2,5.6,2.5l4.8,10.8c1,2.1-0.4,3.5-2.9,4.8c-7.5,4.6-21.4,9.1-38.2,9.1
			c-41.9,0-66.4-25.9-66.4-75.1c0-48.9,24.3-75.1,65.3-75.1c16.4,0,30.3,4.4,37.7,8.7c2.5,1.5,3.5,2.7,2.7,5l-4.6,10.6
			c-0.8,2.3-2.3,3.5-5.6,2.1c-6.4-3.1-16-5.8-26.8-5.8c-30.3,0-45.6,18-45.6,54.5s15.1,54.7,46.5,54.7
			C5129.8,512.1,5139.3,508.7,5145.8,505.2z"/>
		<path class="st17" d="M5182.7,388.7c0-2.9,1.2-4.1,3.9-4.1h14.5c2.9,0,4.4,1.2,4.4,4.1v137.5c0,2.9-1.5,4.1-4.4,4.1h-14.5
			c-2.7,0-3.9-1.2-3.9-4.1V388.7z"/>
		<path class="st17" d="M5229.7,388.7c0-2.9,1.5-4.1,4.1-4.1h95c3.1,0,4.4,1.2,4.4,4.1v12.4c0,2.7-1.2,4.1-4.4,4.1H5293v120.9
			c0,2.9-1.2,4.1-4.4,4.1h-14.3c-2.7,0-4.1-1.2-4.1-4.1V405.3h-36.1c-2.9,0-4.4-1.5-4.4-4.1V388.7z"/>
		<path class="st17" d="M5418,526.2c0,2.9-1.5,4.1-4.1,4.1h-14.5c-2.9,0-4.1-1.2-4.1-4.1v-49.6l-49.8-87.1c-1.2-2.3-0.4-5,2.9-5
			h15.6c3.3,0,4.4,1.5,5.6,3.7l26.3,48.3l10.8,21.2l10.8-21.2l26.5-48.3c0.8-2.3,2.1-3.7,5.4-3.7h15.6c3.3,0,3.9,2.7,2.9,5
			l-49.8,87.1L5418,526.2L5418,526.2z"/>
	</g>
</g>
<g>
	<g>
		<polygon class="st22" points="3421.7,1711.5 3417.7,1704.5 3425.4,1702.2 3497.2,1680.7 3280.8,1527.6 3303.5,1791.7 
			3358.4,1740.6 3364.3,1735.1 3368.3,1742.1 3417,1826.7 3470.4,1796.2 		"/>
	</g>
</g>
<g>
	<g>
		<polygon class="st11" points="5656.6,750.4 5652.6,743.4 5660.4,741 5732.1,719.5 5515.8,566.4 5538.5,830.5 5593.3,779.4 
			5599.3,773.9 5603.3,780.9 5652,865.5 5705.4,835 		"/>
	</g>
</g>
<g class="st6">
	<path class="st3" d="M570.6,227.5v-16.1h-30.8v29.4h39.9l10.9,10.9v45.8l-10.9,10.9h-49l-10.9-10.9v-23.3h20v16.1h30.8v-31.4h-39.9
		L519.7,248v-43.8l10.9-10.9h49l10.9,10.9v23.3H570.6z"/>
	<path class="st3" d="M686.1,233.4h-17.6v-22h-14.7v78.9h13.1v18.1h-46.2v-18.1h13.1v-78.9h-14.7v22h-17.9v-40.2h84.8V233.4z"/>
	<path class="st3" d="M748.7,228.4v-17h-24.5v29.7h27.9v18h-27.9v31.2h24.5v-17h17.9v35.1h-73.4v-18.1h11.1v-78.9h-11.1v-18.1h73.4
		v35.1H748.7z"/>
	<path class="st3" d="M854.1,204.2v49.2l-10.9,10.9h-36.3v25.9H821v18.1h-45.2v-18.1h11.1v-78.9h-11.1v-18.1h67.4L854.1,204.2z
		 M834.1,211.4h-27.2v35.7h27.2V211.4z"/>
	<path class="st3" d="M972.3,204.2v38.6l-7.1,7.1l7.1,7.1v40.6l-10.9,10.9h-49l-10.9-10.9v-23.6h20v16.4h30.8v-31.4h-28.5v-18.1
		h28.5v-29.4h-30.8v16.4h-20v-23.6l10.9-10.9h49L972.3,204.2z"/>
	<path class="st3" d="M1011.2,240l0.1,22.5h-23.5V240H1011.2z M1011.2,286l0.1,22.5h-23.5V286H1011.2z"/>
	<path class="st3" d="M1136.6,204.2v49.2l-10.9,10.9h-36.3v25.9h14.1v18.1h-45.2v-18.1h11.1v-78.9h-11.1v-18.1h67.4L1136.6,204.2z
		 M1116.6,211.4h-27.2v35.7h27.2V211.4z"/>
	<path class="st3" d="M1230.4,290.3v18.1h-23.8l-27.8-51.3h-2.6v33.1h12.7v18.1h-43.8v-18.1h11.1v-78.9h-11.1v-18.1h68.3l10.9,10.9
		v42l-10.9,10.9H1201l18.1,33.1H1230.4z M1176.2,240.8h28.1v-29.4h-28.1V240.8z"/>
	<path class="st3" d="M1309.6,204.2v93.3l-10.9,10.9h-49l-10.9-10.9v-93.3l10.9-10.9h49L1309.6,204.2z M1258.7,211.4v78.9h30.8
		v-78.9H1258.7z"/>
	<path class="st3" d="M1373.4,228.4v-17h-22.9v32.3h27.9v18.1h-27.9v28.5h13.8v18.1h-44.9v-18.1h11.1v-78.9h-11.1v-18.1h71.9v35.1
		H1373.4z"/>
	<path class="st3" d="M1431.1,211.4v78.9h10.9v18.1h-42v-18.1h11.1v-78.9H1400v-18.1h42v18.1H1431.1z"/>
	<path class="st3" d="M1520.7,266.4v42h-72.6v-18.1h11.1v-78.9h-11.1v-18.1h44.2v18.1h-13.1v78.9h24v-23.9H1520.7z"/>
	<path class="st3" d="M1584,228.4v-17h-24.5v29.7h27.9v18h-27.9v31.2h24.5v-17h17.9v35.1h-73.4v-18.1h11.1v-78.9h-11.1v-18.1h73.4
		v35.1H1584z"/>
</g>
<rect x="531.5" y="379.5" class="st23" width="442.8" height="475.2"/>
<path class="st2" d="M943.3,817.1c-0.4-29.8-29.6-44.9-47.5-48.4c-12.3-2.4-68.3-14.7-100.8-21.9v-4.6c0-9.7,0.8-18.5,1.9-26.2
	c8.8-8.3,16.7-18.8,23-30.8c4.3-8.2,8.2-17.8,11.6-27.7c5.6,0.5,13.9,1,20.2,0.2c4.7-0.6,9.4-2.4,12.9-8.2
	c3.6-5.8,9.9-23.3,11.2-35.8c1.5-13.9-6.2-22.8-15.4-23c-1.7,0-3.3,0.1-4.8,0.2c3.7-10.4,6.8-22.2,6.9-34.2
	c0.3-43.2-3.5-72.9-24.5-93c-21.3-20.4-56.4-27.1-85.2-27.4c-28.8,0.3-63.9,6.9-85.2,27.4c-21,20.2-24.8,49.8-24.5,93
	c0.1,12,3.2,23.8,6.9,34.2c-1.5-0.2-3.2-0.3-4.8-0.2c-9.2,0.2-16.8,9.2-15.4,23c1.3,12.5,7.7,30,11.2,35.8c3.6,5.8,8.2,7.7,12.9,8.2
	c6.3,0.8,14.5,0.3,20.2-0.2c3.4,9.8,7.2,19.5,11.6,27.7c6.3,12,14.2,22.5,23,30.8c1.2,7.8,1.9,16.6,1.9,26.2v5.1
	c-26.8,5.8-86.6,18.7-100.7,21.4c-17.5,3.4-47.1,18.6-47.5,48.4v37.5h380.8L943.3,817.1z"/>
</svg>
